<svg width="17" height="17" viewBox="0 0 17 17" fill="none" xmlns="http://www.w3.org/2000/svg">
<path fill-rule="evenodd" clip-rule="evenodd" d="M5 1.5C3.20507 1.5 1.75 2.95507 1.75 4.75V12.25C1.75 14.0449 3.20507 15.5 5 15.5H12.5C14.2949 15.5 15.75 14.0449 15.75 12.25V4.75C15.75 2.95507 14.2949 1.5 12.5 1.5H5ZM0.75 4.75C0.75 2.40279 2.65279 0.5 5 0.5H12.5C14.8472 0.5 16.75 2.40279 16.75 4.75V12.25C16.75 14.5972 14.8472 16.5 12.5 16.5H5C2.65279 16.5 0.75 14.5972 0.75 12.25V4.75Z" fill="white"/>
<path fill-rule="evenodd" clip-rule="evenodd" d="M9.14918 5.99445C8.62903 5.91732 8.0978 6.00617 7.63105 6.24835C7.1643 6.49054 6.7858 6.87374 6.54939 7.34344C6.31297 7.81314 6.23068 8.34542 6.31423 8.86459C6.39777 9.38375 6.64288 9.86335 7.01471 10.2352C7.38653 10.607 7.86614 10.8521 8.3853 10.9357C8.90446 11.0192 9.43675 10.9369 9.90645 10.7005C10.3761 10.4641 10.7593 10.0856 11.0015 9.61884C11.2437 9.15209 11.3326 8.62086 11.2554 8.1007C11.1768 7.57013 10.9295 7.07892 10.5502 6.69964C10.171 6.32037 9.67976 6.07313 9.14918 5.99445ZM7.17048 5.36073C7.82393 5.02167 8.56765 4.89728 9.29587 5.00527C10.0387 5.11542 10.7264 5.46155 11.2573 5.99254C11.7883 6.52352 12.1345 7.21121 12.2446 7.95402C12.3526 8.68223 12.2282 9.42596 11.8892 10.0794C11.5501 10.7329 11.0136 11.2628 10.356 11.5937C9.69846 11.9247 8.95326 12.0399 8.22643 11.923C7.4996 11.806 6.82816 11.4628 6.3076 10.9423C5.78704 10.4217 5.44388 9.75028 5.32693 9.02346C5.20997 8.29663 5.32517 7.55143 5.65615 6.89385C5.98713 6.23627 6.51703 5.69979 7.17048 5.36073Z" fill="white"/>
<path fill-rule="evenodd" clip-rule="evenodd" d="M12.375 4.375C12.375 4.09886 12.5989 3.875 12.875 3.875H12.8825C13.1586 3.875 13.3825 4.09886 13.3825 4.375C13.3825 4.65114 13.1586 4.875 12.8825 4.875H12.875C12.5989 4.875 12.375 4.65114 12.375 4.375Z" fill="white"/>
</svg>
